<svg id="svg" version="1.1" xmlns="http://www.w3.org/2000/svg" xmlns:xlink="http://www.w3.org/1999/xlink" width="400" height="64.07594185701572" viewBox="0, 0, 400,64.07594185701572"><g id="svgg"><path id="path0" d="M49.780 9.667 C 49.530 11.821,49.287 13.996,49.241 14.500 C 49.195 15.004,49.113 15.713,49.058 16.074 L 48.960 16.732 48.646 15.908 C 48.473 15.454,47.834 13.583,47.227 11.750 C 45.903 7.755,45.911 7.766,45.766 9.615 C 45.702 10.423,45.537 12.075,45.399 13.288 L 45.148 15.492 45.740 18.705 C 46.066 20.471,46.381 22.104,46.439 22.333 C 46.834 23.883,44.469 18.366,43.117 14.583 C 42.595 13.123,42.556 13.250,42.358 17.083 L 42.211 19.917 42.861 22.481 C 43.218 23.892,43.480 25.075,43.444 25.112 C 43.356 25.199,42.143 23.152,41.067 21.103 C 40.066 19.194,40.091 19.168,39.907 22.288 L 39.797 24.160 41.074 25.843 C 41.777 26.769,42.960 28.267,43.705 29.173 L 45.058 30.820 45.737 30.322 C 46.111 30.048,47.820 28.757,49.535 27.454 L 52.654 25.083 52.570 24.333 C 52.473 23.460,50.746 9.669,50.442 7.333 L 50.236 5.750 49.780 9.667 M27.088 7.250 C 27.145 7.892,27.256 8.829,27.336 9.333 C 27.416 9.837,27.532 10.850,27.594 11.583 C 27.687 12.675,27.874 13.310,28.624 15.083 C 30.771 20.156,30.754 20.190,28.105 16.122 C 23.366 8.842,22.315 7.270,22.397 7.583 C 22.445 7.767,22.752 9.304,23.080 11.000 C 23.625 13.814,23.987 15.066,24.863 17.151 C 25.343 18.294,25.219 18.204,22.098 15.136 C 20.483 13.549,19.189 12.325,19.223 12.417 C 19.257 12.508,19.716 13.911,20.244 15.533 L 21.204 18.482 23.977 21.052 C 25.502 22.466,27.034 23.867,27.381 24.167 C 27.727 24.466,27.978 24.744,27.938 24.784 C 27.865 24.857,21.273 20.734,20.516 20.142 C 19.884 19.647,19.920 19.804,21.080 22.605 L 22.176 25.250 23.963 26.351 C 24.946 26.957,26.110 27.660,26.549 27.913 C 26.989 28.167,27.315 28.407,27.274 28.448 C 27.199 28.524,23.933 27.724,22.417 27.259 C 21.059 26.843,21.066 26.930,22.524 28.523 C 23.290 29.361,24.142 30.304,24.417 30.618 C 24.880 31.148,25.158 31.254,28.250 32.091 C 30.083 32.587,31.808 33.064,32.083 33.152 C 32.413 33.256,31.281 33.279,28.750 33.219 C 25.410 33.139,24.949 33.158,25.167 33.367 C 25.304 33.499,26.140 34.220,27.024 34.970 L 28.631 36.332 31.607 36.583 C 34.953 36.865,36.215 37.007,36.130 37.093 C 36.098 37.125,34.874 37.343,33.411 37.579 C 31.947 37.814,30.421 38.061,30.020 38.128 L 29.290 38.250 29.937 38.597 C 30.292 38.788,31.403 39.383,32.405 39.919 L 34.226 40.895 36.572 40.600 C 37.861 40.437,39.142 40.269,39.417 40.225 C 40.535 40.047,36.384 43.454,30.923 47.195 C 23.695 52.148,23.884 51.985,26.102 51.320 C 26.992 51.052,27.790 50.833,27.874 50.833 C 28.031 50.833,27.649 51.328,25.125 54.395 C 24.323 55.369,23.706 56.167,23.754 56.167 C 23.885 56.167,25.937 55.117,27.149 54.429 C 28.553 53.633,28.552 53.624,27.179 56.239 C 26.525 57.483,26.043 58.500,26.107 58.500 C 26.172 58.500,27.359 57.637,28.746 56.583 C 31.749 54.302,31.614 54.336,30.996 56.011 C 30.723 56.751,30.503 57.407,30.506 57.470 C 30.510 57.532,31.490 56.571,32.685 55.333 C 34.716 53.230,34.852 53.121,34.758 53.667 C 34.399 55.757,34.342 55.749,35.774 53.815 C 36.494 52.843,37.571 51.329,38.167 50.451 C 39.594 48.348,40.835 47.621,40.495 49.088 C 40.346 49.729,40.278 50.833,40.387 50.833 C 40.416 50.833,41.547 50.646,42.900 50.417 C 44.253 50.188,45.450 50.000,45.560 50.000 C 45.670 50.000,46.012 50.731,46.321 51.625 C 47.039 53.700,47.017 53.685,47.582 52.502 C 48.198 51.214,48.500 51.357,48.500 52.938 C 48.500 53.576,48.713 53.402,49.327 52.262 C 49.992 51.029,50.082 51.019,50.234 52.163 C 50.368 53.173,50.459 53.193,51.011 52.329 C 51.426 51.679,51.433 51.621,51.261 50.305 L 51.083 48.950 48.860 48.114 C 46.340 47.167,46.508 47.421,47.084 45.438 C 47.301 44.693,47.585 44.307,48.886 42.985 C 50.573 41.272,51.755 39.830,53.167 37.760 L 54.083 36.417 55.394 36.270 C 56.808 36.111,58.666 36.515,60.817 37.447 C 61.907 37.920,61.894 37.930,61.578 36.866 C 61.359 36.130,61.139 35.850,60.019 34.880 C 59.178 34.151,58.502 33.387,58.114 32.727 C 56.989 30.812,53.792 29.829,50.250 30.309 L 49.417 30.421 50.213 30.650 C 51.445 31.004,51.316 31.104,49.124 31.498 C 45.678 32.118,45.776 31.777,48.351 34.172 C 50.954 36.594,50.868 36.430,49.913 37.130 C 48.769 37.969,48.844 37.995,47.124 36.134 C 39.497 27.882,35.341 21.765,28.007 8.000 L 26.986 6.083 27.088 7.250 M56.750 33.375 C 57.069 33.581,57.330 33.806,57.331 33.875 C 57.334 34.035,56.641 34.033,56.400 33.872 C 56.107 33.677,55.794 33.000,55.996 33.000 C 56.093 33.000,56.432 33.169,56.750 33.375 " stroke="none" fill="#060606" fill-rule="evenodd"></path><path id="path1" d="M14.515 3.479 C 14.294 3.541,13.957 3.801,13.765 4.058 L 13.417 4.524 13.368 31.221 C 13.316 59.466,13.300 58.854,14.110 59.491 C 14.643 59.911,68.145 60.037,68.674 59.620 C 69.559 58.923,69.500 60.925,69.500 31.614 C 69.500 1.699,69.583 3.902,68.442 3.505 C 67.889 3.312,15.202 3.287,14.515 3.479 M73.333 3.732 C 73.333 3.860,73.773 5.716,74.310 7.857 C 74.848 9.998,75.326 11.938,75.373 12.167 C 75.475 12.661,76.086 15.072,76.408 16.250 C 76.533 16.708,76.727 17.496,76.840 18.000 C 76.952 18.504,77.140 19.254,77.258 19.667 C 77.376 20.079,77.562 20.829,77.672 21.333 C 77.781 21.837,77.966 22.550,78.082 22.917 C 78.198 23.283,78.386 24.033,78.500 24.583 C 78.614 25.133,78.803 25.883,78.921 26.250 C 79.039 26.617,79.226 27.367,79.338 27.917 C 79.449 28.467,79.636 29.217,79.753 29.583 C 79.870 29.950,80.132 31.000,80.336 31.917 C 80.541 32.833,80.803 33.921,80.920 34.333 C 81.037 34.746,81.220 35.458,81.326 35.917 C 81.433 36.375,81.628 37.162,81.759 37.667 C 82.063 38.830,82.627 41.121,82.928 42.417 C 83.056 42.967,83.272 43.829,83.408 44.333 C 83.543 44.837,83.773 45.737,83.918 46.333 C 84.622 49.222,84.855 50.161,85.097 51.083 C 85.242 51.633,85.423 52.346,85.500 52.667 C 85.577 52.987,85.765 53.737,85.917 54.333 C 86.069 54.929,86.255 55.679,86.331 56.000 C 86.407 56.321,86.581 56.996,86.718 57.500 C 86.855 58.004,87.013 58.623,87.070 58.876 L 87.174 59.336 98.295 59.293 L 109.417 59.250 109.456 58.417 C 109.477 57.958,109.605 56.421,109.740 55.000 C 109.875 53.579,110.067 51.292,110.167 49.917 C 110.266 48.542,110.454 46.292,110.584 44.917 C 110.713 43.542,110.900 41.329,110.997 40.000 C 111.241 36.683,111.559 33.364,111.603 33.667 C 111.623 33.804,111.723 35.042,111.824 36.417 C 111.926 37.792,112.118 40.192,112.251 41.750 C 112.384 43.308,112.572 45.708,112.668 47.083 C 112.765 48.458,112.952 50.858,113.084 52.417 C 113.216 53.975,113.366 55.887,113.418 56.667 C 113.470 57.446,113.557 58.365,113.611 58.710 L 113.710 59.336 124.794 59.293 L 135.879 59.250 136.103 58.333 C 136.226 57.829,136.439 57.004,136.575 56.500 C 136.712 55.996,137.165 54.158,137.583 52.417 C 138.000 50.675,138.445 48.875,138.572 48.417 C 138.699 47.958,138.894 47.171,139.005 46.667 C 139.117 46.163,139.270 45.563,139.346 45.333 C 139.422 45.104,139.603 44.392,139.748 43.750 C 139.893 43.108,140.122 42.208,140.255 41.750 C 140.389 41.292,141.326 37.542,142.337 33.417 C 143.347 29.292,144.278 25.542,144.405 25.083 C 144.532 24.625,144.727 23.837,144.840 23.333 C 144.952 22.829,145.138 22.079,145.255 21.667 C 145.371 21.254,145.553 20.542,145.660 20.083 C 145.996 18.642,146.129 18.110,146.386 17.167 C 146.523 16.662,146.727 15.838,146.840 15.333 C 146.952 14.829,147.140 14.079,147.258 13.667 C 147.376 13.254,147.564 12.504,147.675 12.000 C 147.786 11.496,147.972 10.746,148.088 10.333 C 148.274 9.674,148.473 8.858,148.720 7.750 C 148.761 7.567,148.946 6.854,149.131 6.167 C 149.316 5.479,149.519 4.598,149.582 4.208 L 149.696 3.500 140.771 3.500 L 131.846 3.500 131.671 4.150 C 131.500 4.786,131.348 5.489,130.984 7.333 C 130.628 9.133,130.530 9.598,130.261 10.750 C 130.111 11.392,129.924 12.254,129.844 12.667 C 129.764 13.079,129.576 13.942,129.427 14.583 C 129.278 15.225,129.090 16.087,129.010 16.500 C 128.929 16.912,128.625 18.337,128.333 19.667 C 127.724 22.435,127.598 23.045,127.357 24.377 C 127.262 24.906,127.138 25.411,127.083 25.500 C 127.028 25.589,126.914 26.057,126.830 26.539 C 126.745 27.022,126.559 27.942,126.416 28.583 C 126.273 29.225,126.006 30.462,125.824 31.333 C 125.641 32.204,125.378 33.404,125.241 34.000 C 125.103 34.596,124.923 35.421,124.842 35.833 C 124.295 38.598,123.513 42.209,123.447 42.275 C 123.404 42.318,123.321 41.805,123.263 41.135 C 123.082 39.062,122.818 36.502,122.581 34.500 C 122.456 33.446,122.271 31.683,122.171 30.583 C 122.070 29.483,121.883 27.683,121.755 26.583 C 121.627 25.483,121.438 23.683,121.335 22.583 C 121.232 21.483,121.044 19.683,120.916 18.583 C 120.789 17.483,120.603 15.721,120.504 14.667 C 120.329 12.817,119.987 9.690,119.658 6.917 C 119.571 6.183,119.499 5.283,119.498 4.917 C 119.496 4.550,119.450 4.081,119.395 3.875 L 119.294 3.500 110.147 3.500 C 104.664 3.500,101.000 3.562,101.000 3.654 C 101.000 3.802,101.100 4.315,101.589 6.667 C 101.713 7.263,101.900 8.275,102.004 8.917 C 102.109 9.558,102.246 10.303,102.308 10.571 C 102.371 10.839,102.362 11.626,102.289 12.321 C 102.215 13.015,102.082 14.333,101.991 15.250 C 101.901 16.167,101.717 17.854,101.584 19.000 C 101.450 20.146,101.261 21.946,101.163 23.000 C 101.066 24.054,100.881 25.779,100.752 26.833 C 100.624 27.887,100.437 29.650,100.337 30.750 C 100.237 31.850,100.050 33.612,99.921 34.667 C 99.793 35.721,99.610 37.408,99.514 38.417 C 99.058 43.230,99.160 43.003,98.647 40.333 C 98.550 39.829,98.372 38.929,98.250 38.333 C 98.128 37.737,97.941 36.800,97.833 36.250 C 97.726 35.700,97.538 34.762,97.416 34.167 C 97.295 33.571,97.111 32.633,97.007 32.083 C 96.904 31.533,96.717 30.596,96.591 30.000 C 96.465 29.404,96.277 28.467,96.174 27.917 C 96.071 27.367,95.883 26.429,95.758 25.833 C 95.632 25.238,95.441 24.300,95.333 23.750 C 95.226 23.200,95.038 22.262,94.917 21.667 C 94.795 21.071,94.613 20.171,94.513 19.667 C 94.412 19.162,94.172 17.962,93.980 17.000 C 93.560 14.899,93.403 14.066,93.179 12.767 C 93.086 12.226,92.940 11.551,92.856 11.267 C 92.772 10.982,92.611 10.188,92.499 9.500 C 92.387 8.813,92.196 7.837,92.075 7.333 C 91.954 6.829,91.770 5.929,91.666 5.333 C 91.561 4.737,91.442 4.081,91.401 3.875 L 91.327 3.500 82.330 3.500 C 74.748 3.500,73.333 3.537,73.333 3.732 M151.167 3.838 C 151.167 4.024,151.327 4.792,151.523 5.546 C 151.869 6.878,152.013 7.479,152.568 9.917 C 152.794 10.912,152.833 12.509,152.833 20.787 L 152.833 30.492 153.375 30.405 C 154.233 30.267,155.810 29.993,157.167 29.745 C 157.854 29.619,158.904 29.432,159.500 29.328 C 160.096 29.225,161.183 29.030,161.917 28.895 C 162.650 28.761,163.625 28.585,164.083 28.504 C 166.709 28.041,168.149 27.783,168.667 27.683 L 169.250 27.571 169.294 22.785 L 169.338 18.000 174.919 18.000 L 180.500 18.000 180.500 21.997 C 180.500 27.692,179.974 28.697,176.667 29.320 C 176.071 29.432,175.058 29.624,174.417 29.746 C 173.775 29.868,172.688 30.056,172.000 30.164 C 171.313 30.273,170.412 30.431,170.000 30.516 C 169.104 30.701,164.872 31.440,161.500 32.000 C 158.480 32.502,153.912 33.297,153.292 33.429 L 152.833 33.526 152.833 46.430 L 152.833 59.333 161.083 59.333 L 169.333 59.333 169.333 51.262 L 169.333 43.191 170.292 43.090 C 170.819 43.034,171.662 42.919,172.167 42.833 C 174.300 42.471,175.000 42.454,175.000 42.765 C 175.000 42.924,175.110 43.436,175.245 43.902 C 175.379 44.368,175.682 45.575,175.917 46.583 C 176.352 48.447,176.441 48.811,176.898 50.583 C 177.040 51.133,177.274 52.108,177.419 52.750 C 177.564 53.392,177.746 54.104,177.824 54.333 C 177.901 54.563,178.054 55.200,178.165 55.750 C 178.275 56.300,178.464 57.050,178.584 57.417 C 178.705 57.783,178.851 58.365,178.909 58.708 L 179.015 59.333 188.091 59.333 C 193.083 59.333,197.167 59.299,197.167 59.257 C 197.167 59.170,196.034 56.579,195.320 55.030 C 195.052 54.451,194.833 53.941,194.833 53.898 C 194.833 53.855,194.602 53.316,194.319 52.701 C 194.037 52.086,193.672 51.283,193.508 50.917 C 193.345 50.550,193.014 49.817,192.772 49.287 C 192.531 48.758,192.333 48.290,192.333 48.249 C 192.333 48.208,192.064 47.591,191.736 46.879 C 190.891 45.047,190.125 43.339,189.661 42.250 C 189.583 42.067,189.252 41.325,188.926 40.602 C 188.600 39.878,188.333 39.267,188.333 39.243 C 188.333 39.219,188.840 38.946,189.458 38.636 C 192.519 37.104,194.813 34.766,195.803 32.167 C 196.998 29.032,197.167 26.790,197.167 14.066 L 197.167 3.500 174.167 3.500 C 151.178 3.500,151.167 3.500,151.167 3.838 M208.500 3.642 C 208.500 3.720,208.567 4.001,208.648 4.267 C 208.884 5.039,209.283 6.589,209.841 8.899 C 210.402 11.221,210.396 11.521,209.744 13.833 C 209.602 14.338,209.423 15.050,209.346 15.417 C 209.269 15.783,209.044 16.721,208.845 17.500 C 208.646 18.279,208.378 19.329,208.250 19.833 C 208.122 20.337,207.854 21.387,207.655 22.167 C 207.456 22.946,207.224 23.883,207.139 24.250 C 206.830 25.584,206.701 26.102,206.429 27.083 C 206.277 27.633,206.089 28.383,206.012 28.750 C 205.935 29.117,205.747 29.867,205.595 30.417 C 205.443 30.967,205.256 31.717,205.179 32.083 C 205.102 32.450,204.876 33.387,204.676 34.167 C 204.161 36.171,203.509 38.785,203.303 39.667 C 203.207 40.079,203.026 40.792,202.901 41.250 C 202.777 41.708,202.408 43.208,202.082 44.583 C 201.756 45.958,201.386 47.458,201.260 47.917 C 201.134 48.375,200.941 49.163,200.830 49.667 C 200.720 50.171,200.534 50.883,200.418 51.250 C 200.302 51.617,200.114 52.367,200.000 52.917 C 199.886 53.467,199.697 54.217,199.579 54.583 C 199.461 54.950,199.273 55.700,199.160 56.250 C 199.047 56.800,198.853 57.571,198.728 57.964 C 198.246 59.476,197.411 59.333,206.731 59.333 L 214.962 59.333 215.042 58.875 C 215.122 58.412,215.654 56.288,216.074 54.750 C 216.200 54.292,216.394 53.504,216.506 53.000 C 216.618 52.496,216.807 51.746,216.925 51.333 C 217.043 50.921,217.230 50.171,217.342 49.667 C 217.453 49.163,217.638 48.413,217.755 48.000 C 217.871 47.587,218.045 46.913,218.142 46.500 C 218.511 44.926,218.812 43.715,219.075 42.750 C 219.225 42.200,219.414 41.450,219.495 41.083 C 219.575 40.717,219.879 39.517,220.170 38.417 C 220.461 37.317,220.763 36.117,220.842 35.750 C 220.921 35.383,221.110 34.633,221.262 34.083 C 221.414 33.533,221.601 32.783,221.678 32.417 C 221.756 32.050,221.943 31.300,222.096 30.750 C 222.248 30.200,222.439 29.469,222.520 29.125 C 223.152 26.439,223.406 25.500,223.500 25.500 C 223.592 25.500,223.941 26.786,224.472 29.083 C 224.557 29.450,224.790 30.387,224.991 31.167 C 225.191 31.946,225.532 33.296,225.750 34.167 C 225.968 35.037,226.311 36.387,226.514 37.167 C 226.889 38.609,227.085 39.666,226.977 39.667 C 226.697 39.669,222.742 40.372,222.120 40.530 C 221.475 40.694,221.306 40.813,221.235 41.158 C 221.186 41.392,220.992 42.183,220.803 42.917 C 220.615 43.650,220.398 44.550,220.321 44.917 C 220.244 45.283,220.057 46.033,219.904 46.583 C 219.751 47.133,219.588 47.771,219.542 48.000 C 219.495 48.229,219.204 49.414,218.895 50.632 C 218.586 51.851,218.333 52.882,218.333 52.924 C 218.333 53.068,219.187 52.999,220.300 52.766 C 220.914 52.637,221.979 52.443,222.667 52.336 C 223.354 52.229,224.254 52.065,224.667 51.971 C 225.393 51.807,226.027 51.699,228.351 51.343 C 228.956 51.251,229.570 51.129,229.715 51.074 C 229.913 50.998,230.020 51.131,230.148 51.611 C 230.408 52.594,231.005 54.971,231.270 56.083 C 231.402 56.633,231.619 57.465,231.754 57.931 C 231.890 58.398,232.000 58.904,232.000 59.056 C 232.000 59.311,232.677 59.333,240.351 59.333 C 248.236 59.333,248.696 59.317,248.590 59.042 C 248.528 58.881,248.410 58.413,248.329 58.000 C 248.247 57.587,248.067 56.837,247.928 56.333 C 247.789 55.829,247.631 55.229,247.578 55.000 C 247.525 54.771,247.416 54.321,247.335 54.000 C 247.254 53.679,247.101 53.042,246.994 52.583 C 246.888 52.125,246.759 51.637,246.708 51.500 C 246.657 51.362,246.604 51.175,246.591 51.083 C 246.577 50.992,246.509 50.692,246.440 50.417 C 246.371 50.142,246.236 49.579,246.140 49.167 C 246.044 48.754,245.871 48.079,245.755 47.667 C 245.638 47.254,245.453 46.504,245.342 46.000 C 245.230 45.496,245.043 44.746,244.925 44.333 C 244.807 43.921,244.619 43.171,244.508 42.667 C 244.397 42.162,244.210 41.412,244.092 41.000 C 243.973 40.587,243.785 39.837,243.673 39.333 C 243.561 38.829,243.366 38.042,243.241 37.583 C 242.749 35.782,242.138 33.316,241.844 31.947 C 241.750 31.506,241.632 31.079,241.583 31.000 C 241.534 30.921,241.417 30.494,241.322 30.053 C 241.087 28.955,240.932 28.308,240.528 26.750 C 240.338 26.017,239.167 21.292,237.926 16.250 C 236.685 11.208,235.565 6.746,235.437 6.333 C 235.310 5.921,235.106 5.115,234.985 4.542 L 234.765 3.500 221.632 3.500 C 214.410 3.500,208.500 3.564,208.500 3.642 M241.667 3.614 C 241.667 3.776,242.131 5.757,242.401 6.750 C 242.526 7.208,242.717 7.958,242.824 8.417 C 242.932 8.875,243.128 9.662,243.259 10.167 C 243.563 11.330,244.127 13.621,244.428 14.917 C 244.556 15.467,244.770 16.329,244.904 16.833 C 245.038 17.337,245.234 18.125,245.341 18.583 C 245.447 19.042,245.629 19.754,245.745 20.167 C 245.862 20.579,246.048 21.329,246.160 21.833 C 246.273 22.337,246.477 23.162,246.614 23.667 C 246.752 24.171,246.928 24.846,247.006 25.167 C 247.084 25.488,247.344 26.537,247.584 27.500 C 247.825 28.462,248.100 29.587,248.195 30.000 C 248.290 30.412,248.463 31.087,248.579 31.500 C 248.695 31.912,248.881 32.662,248.992 33.167 C 249.103 33.671,249.290 34.421,249.408 34.833 C 249.527 35.246,249.714 35.996,249.825 36.500 C 249.936 37.004,250.124 37.754,250.242 38.167 C 250.360 38.579,250.547 39.329,250.658 39.833 C 250.770 40.337,250.957 41.087,251.075 41.500 C 251.193 41.912,251.381 42.662,251.492 43.167 C 251.603 43.671,251.790 44.421,251.908 44.833 C 252.027 45.246,252.215 45.996,252.327 46.500 C 252.439 47.004,252.644 47.829,252.781 48.333 C 252.918 48.837,253.093 49.512,253.169 49.833 C 253.245 50.154,253.431 50.904,253.583 51.500 C 253.735 52.096,253.923 52.846,254.000 53.167 C 254.077 53.487,254.255 54.200,254.396 54.750 C 254.537 55.300,254.812 56.425,255.008 57.250 C 255.204 58.075,255.399 58.881,255.443 59.042 C 255.518 59.316,256.162 59.333,265.985 59.333 L 276.447 59.333 276.624 58.708 C 276.722 58.365,276.893 57.671,277.006 57.167 C 277.118 56.663,277.307 55.913,277.425 55.500 C 277.543 55.087,277.730 54.337,277.842 53.833 C 277.953 53.329,278.140 52.579,278.258 52.167 C 278.376 51.754,278.564 51.004,278.675 50.500 C 278.786 49.996,278.973 49.246,279.092 48.833 C 279.210 48.421,279.397 47.671,279.508 47.167 C 279.619 46.663,279.807 45.913,279.925 45.500 C 280.043 45.087,280.230 44.337,280.342 43.833 C 280.453 43.329,280.640 42.579,280.758 42.167 C 280.876 41.754,281.063 41.004,281.174 40.500 C 281.284 39.996,281.437 39.396,281.512 39.167 C 281.588 38.938,282.217 36.425,282.911 33.583 C 283.605 30.742,284.277 28.042,284.404 27.583 C 284.532 27.125,284.727 26.337,284.840 25.833 C 284.952 25.329,285.140 24.579,285.258 24.167 C 285.376 23.754,285.564 23.004,285.675 22.500 C 285.786 21.996,285.973 21.246,286.092 20.833 C 286.210 20.421,286.397 19.671,286.508 19.167 C 286.619 18.662,286.807 17.912,286.925 17.500 C 287.043 17.087,287.230 16.337,287.342 15.833 C 287.453 15.329,287.640 14.579,287.758 14.167 C 287.876 13.754,288.064 13.004,288.175 12.500 C 288.286 11.996,288.473 11.246,288.592 10.833 C 288.710 10.421,288.897 9.671,289.008 9.167 C 289.119 8.662,289.307 7.912,289.425 7.500 C 289.543 7.087,289.730 6.337,289.841 5.833 C 289.951 5.329,290.107 4.699,290.187 4.433 C 290.268 4.168,290.333 3.849,290.333 3.725 C 290.333 3.539,288.786 3.500,281.369 3.500 L 272.405 3.500 272.132 4.958 C 271.982 5.760,271.774 6.979,271.671 7.667 C 271.567 8.354,271.376 9.517,271.246 10.250 C 271.117 10.983,270.929 12.146,270.829 12.833 C 270.729 13.521,270.546 14.646,270.422 15.333 C 270.298 16.021,270.110 17.146,270.004 17.833 C 269.898 18.521,269.700 19.758,269.565 20.583 C 269.141 23.164,269.026 23.879,268.833 25.167 C 268.729 25.854,268.541 27.017,268.414 27.750 C 268.288 28.483,268.098 29.646,267.993 30.333 C 267.887 31.021,267.703 32.146,267.583 32.833 C 267.464 33.521,267.278 34.646,267.172 35.333 C 266.969 36.642,266.649 38.551,266.346 40.260 C 266.247 40.816,266.166 41.528,266.164 41.843 C 266.161 42.632,265.875 42.167,265.748 41.167 C 265.613 40.107,265.358 38.472,265.085 36.917 C 264.956 36.183,264.768 35.021,264.667 34.333 C 264.566 33.646,264.377 32.521,264.248 31.833 C 264.119 31.146,263.929 29.983,263.826 29.250 C 263.723 28.517,263.539 27.354,263.419 26.667 C 263.298 25.979,263.113 24.854,263.007 24.167 C 262.902 23.479,262.712 22.317,262.586 21.583 C 262.459 20.850,262.271 19.688,262.167 19.000 C 261.974 17.713,261.859 16.998,261.435 14.417 C 261.300 13.592,261.102 12.354,260.995 11.667 C 260.888 10.979,260.702 9.854,260.581 9.167 C 260.461 8.479,260.274 7.317,260.167 6.583 C 260.060 5.850,259.898 4.856,259.808 4.375 L 259.643 3.500 250.655 3.500 C 245.711 3.500,241.667 3.551,241.667 3.614 M291.712 3.958 C 291.758 4.210,291.923 4.867,292.079 5.417 C 292.597 7.242,293.178 9.408,293.333 10.083 C 293.421 10.469,293.489 20.975,293.493 35.042 L 293.500 59.333 313.417 59.333 L 333.333 59.333 333.333 58.946 C 333.333 58.734,333.230 58.227,333.104 57.821 C 332.978 57.415,332.785 56.671,332.674 56.167 C 332.563 55.663,332.376 54.913,332.258 54.500 C 332.140 54.087,331.953 53.337,331.842 52.833 C 331.730 52.329,331.543 51.579,331.425 51.167 C 331.307 50.754,331.119 50.004,331.008 49.500 C 330.897 48.996,330.710 48.246,330.592 47.833 C 330.473 47.421,330.286 46.671,330.174 46.167 C 330.063 45.663,329.935 45.119,329.891 44.958 C 329.816 44.685,329.201 44.667,319.989 44.667 L 310.167 44.667 310.167 41.917 L 310.167 39.167 319.250 39.167 L 328.333 39.167 328.333 38.806 C 328.333 38.608,328.223 38.064,328.089 37.598 C 327.955 37.132,327.689 36.075,327.498 35.250 C 327.308 34.425,327.047 33.337,326.918 32.833 C 326.112 29.684,325.946 29.015,325.821 28.417 C 325.744 28.050,325.563 27.337,325.420 26.833 C 325.276 26.329,325.113 25.635,325.057 25.292 L 324.956 24.667 317.561 24.667 L 310.167 24.667 310.167 21.335 L 310.167 18.003 320.029 17.960 L 329.890 17.917 330.108 16.917 C 330.228 16.367,330.446 15.467,330.593 14.917 C 330.740 14.367,330.923 13.654,331.000 13.333 C 331.077 13.012,331.265 12.262,331.417 11.667 C 331.569 11.071,331.756 10.321,331.833 10.000 C 331.910 9.679,332.088 8.967,332.228 8.417 C 333.028 5.279,333.333 3.993,333.333 3.761 C 333.333 3.526,331.289 3.500,312.481 3.500 L 291.629 3.500 291.712 3.958 M334.669 3.707 C 334.670 3.822,334.784 4.329,334.923 4.833 C 335.062 5.337,335.252 6.087,335.346 6.500 C 335.678 7.962,335.795 8.431,336.146 9.705 C 336.499 10.992,336.500 11.028,336.500 35.164 L 336.500 59.333 344.750 59.333 L 353.000 59.333 353.013 41.875 C 353.023 27.045,353.059 24.504,353.250 25.000 C 353.374 25.321,353.480 25.766,353.487 25.988 C 353.494 26.211,353.569 26.623,353.654 26.905 C 353.804 27.406,354.128 28.836,354.506 30.667 C 354.611 31.171,354.801 31.996,354.930 32.500 C 355.059 33.004,355.280 33.979,355.422 34.667 C 355.805 36.518,356.466 39.600,356.745 40.833 C 356.881 41.429,357.145 42.667,357.332 43.583 C 357.520 44.500,357.738 45.475,357.818 45.750 C 357.897 46.025,358.054 46.700,358.168 47.250 C 358.281 47.800,358.471 48.663,358.590 49.167 C 358.709 49.671,358.898 50.533,359.009 51.083 C 359.120 51.633,359.305 52.458,359.420 52.917 C 359.535 53.375,359.718 54.200,359.826 54.750 C 359.935 55.300,360.128 56.163,360.255 56.667 C 360.382 57.171,360.572 57.977,360.677 58.458 L 360.867 59.333 372.017 59.333 L 383.167 59.333 383.167 31.417 L 383.167 3.500 374.833 3.500 L 366.500 3.500 366.485 19.208 C 366.477 27.848,366.411 34.692,366.340 34.417 C 366.269 34.142,366.120 33.279,366.009 32.500 C 365.899 31.721,365.708 30.558,365.585 29.917 C 365.461 29.275,365.275 28.188,365.170 27.500 C 365.066 26.813,364.879 25.688,364.755 25.000 C 364.631 24.313,364.444 23.188,364.340 22.500 C 364.235 21.813,364.045 20.688,363.917 20.000 C 363.789 19.313,363.600 18.188,363.498 17.500 C 363.230 15.694,363.054 14.603,362.772 13.000 C 362.634 12.221,362.435 11.021,362.328 10.333 C 362.222 9.646,362.036 8.521,361.917 7.833 C 361.681 6.479,361.320 4.236,361.274 3.833 C 361.235 3.489,334.665 3.364,334.669 3.707 M51.179 12.019 C 51.965 18.205,52.336 21.201,52.655 23.917 C 52.730 24.558,52.745 25.129,52.687 25.184 C 52.313 25.546,45.449 30.697,45.230 30.781 C 45.063 30.845,44.853 30.757,44.687 30.553 C 42.523 27.893,40.465 25.280,40.116 24.750 L 39.677 24.083 39.844 21.591 C 39.936 20.221,40.033 19.078,40.060 19.051 C 40.087 19.025,40.491 19.733,40.959 20.626 C 42.167 22.934,43.388 24.990,43.259 24.500 C 43.199 24.271,42.919 23.221,42.638 22.167 C 42.312 20.945,42.133 19.887,42.144 19.250 C 42.170 17.742,42.540 12.818,42.621 12.899 C 42.660 12.938,42.944 13.693,43.252 14.576 C 43.979 16.665,46.060 21.829,46.141 21.748 C 46.176 21.713,46.126 21.324,46.031 20.884 C 45.936 20.444,45.779 19.633,45.683 19.083 C 45.586 18.533,45.396 17.510,45.261 16.808 C 45.046 15.696,45.044 15.271,45.249 13.475 C 45.378 12.343,45.573 10.520,45.682 9.424 L 45.881 7.431 47.034 10.840 C 48.617 15.516,48.904 16.290,48.951 16.000 C 48.973 15.862,49.107 14.588,49.248 13.167 C 49.730 8.318,50.132 5.243,50.266 5.377 C 50.309 5.420,50.720 8.409,51.179 12.019 M29.287 10.083 C 36.058 22.558,39.901 28.137,47.056 35.875 C 48.965 37.940,48.731 37.836,49.735 37.069 C 50.689 36.340,50.849 36.642,48.200 34.178 C 46.980 33.045,46.043 32.061,46.116 31.993 C 46.190 31.924,47.225 31.703,48.417 31.502 C 49.608 31.301,50.614 31.107,50.651 31.071 C 50.729 30.994,49.594 30.500,49.339 30.500 C 48.448 30.500,49.513 30.192,50.692 30.108 C 53.470 29.911,53.654 29.937,55.693 30.808 L 57.583 31.617 58.234 32.683 C 58.632 33.336,59.328 34.125,60.025 34.715 C 61.239 35.743,61.564 36.218,61.814 37.328 C 61.953 37.947,61.939 38.011,61.693 37.903 C 57.303 35.976,54.609 35.862,53.468 37.554 C 52.110 39.568,50.783 41.206,49.151 42.883 C 47.645 44.431,47.467 44.682,47.165 45.685 C 46.687 47.270,46.613 47.169,48.840 47.975 C 51.279 48.858,51.276 48.855,51.423 50.428 C 51.549 51.766,51.487 51.996,50.757 52.898 L 50.368 53.379 50.154 52.426 L 49.941 51.474 49.596 52.060 C 49.405 52.383,49.109 52.895,48.937 53.198 C 48.581 53.827,48.368 53.595,48.345 52.552 C 48.327 51.723,48.115 51.782,47.584 52.763 C 46.945 53.944,46.946 53.945,46.303 51.979 C 45.633 49.934,45.876 50.033,42.794 50.557 C 39.852 51.058,40.049 51.125,40.292 49.708 C 40.616 47.813,39.938 48.188,37.960 51.000 C 36.829 52.607,35.052 55.086,34.385 55.986 C 34.200 56.235,34.215 55.743,34.422 54.755 C 34.554 54.123,34.638 53.582,34.608 53.553 C 34.579 53.523,33.636 54.474,32.513 55.666 C 30.085 58.244,30.054 58.255,30.752 56.328 C 31.052 55.500,31.211 54.888,31.107 54.968 C 27.806 57.491,25.951 58.840,25.880 58.769 C 25.830 58.719,26.336 57.610,27.003 56.304 C 28.105 54.147,28.174 53.957,27.751 54.234 C 26.957 54.755,23.467 56.523,23.389 56.445 C 23.348 56.404,24.297 55.190,25.497 53.747 C 26.697 52.304,27.655 51.099,27.626 51.070 C 27.596 51.040,26.798 51.242,25.852 51.519 C 24.906 51.795,24.103 51.992,24.068 51.957 C 23.980 51.869,25.454 50.808,29.917 47.746 C 36.587 43.169,40.368 40.127,39.083 40.373 C 38.808 40.425,37.607 40.600,36.414 40.761 L 34.245 41.054 31.622 39.638 C 29.080 38.267,28.758 38.000,29.643 38.000 C 30.146 38.000,35.530 37.141,35.461 37.072 C 35.434 37.045,33.885 36.901,32.018 36.751 L 28.624 36.479 26.645 34.802 C 25.557 33.879,24.667 33.086,24.667 33.039 C 24.667 32.991,26.223 32.999,28.125 33.055 L 31.583 33.158 30.083 32.751 C 24.371 31.200,25.086 31.552,23.047 29.289 C 20.472 26.431,20.445 26.580,23.387 27.397 C 24.503 27.706,25.616 28.006,25.860 28.063 C 26.103 28.119,26.441 28.211,26.610 28.266 C 26.903 28.362,26.091 27.821,23.319 26.076 L 22.054 25.279 20.944 22.582 C 19.620 19.367,19.613 19.312,20.625 20.044 C 21.292 20.526,26.384 23.802,27.167 24.252 C 27.304 24.331,26.967 23.989,26.417 23.492 C 25.171 22.366,23.221 20.539,21.978 19.333 L 21.033 18.417 19.946 15.125 C 19.348 13.315,18.893 11.833,18.934 11.833 C 18.976 11.833,19.958 12.812,21.117 14.009 C 22.277 15.206,23.583 16.484,24.021 16.851 L 24.816 17.517 24.318 16.151 C 24.044 15.400,23.756 14.665,23.679 14.518 C 23.602 14.370,23.487 13.912,23.423 13.500 C 23.359 13.088,23.044 11.450,22.723 9.861 C 22.036 6.465,22.038 6.456,23.089 8.126 C 25.262 11.577,29.681 18.333,29.766 18.333 C 29.849 18.333,29.649 17.830,28.528 15.211 C 27.663 13.189,27.533 12.739,27.429 11.417 C 27.364 10.592,27.205 9.167,27.075 8.250 C 26.667 5.368,26.722 5.185,27.521 6.750 C 27.895 7.483,28.690 8.983,29.287 10.083 M56.205 33.500 C 56.320 33.683,56.564 33.832,56.748 33.830 C 57.057 33.826,57.050 33.800,56.667 33.500 C 56.129 33.079,55.943 33.079,56.205 33.500 " stroke="none" fill="#fbfbfb" fill-rule="evenodd"></path><path id="path2" d="M24.321 17.210 C 24.543 17.461,24.805 17.661,24.904 17.654 C 25.003 17.646,24.989 17.602,24.874 17.556 C 24.759 17.510,24.715 17.384,24.776 17.277 C 24.837 17.171,24.825 17.140,24.749 17.209 C 24.673 17.278,24.454 17.203,24.264 17.043 C 24.011 16.831,24.026 16.877,24.321 17.210 M42.209 17.417 C 42.211 17.783,42.245 17.914,42.285 17.706 C 42.324 17.499,42.323 17.199,42.281 17.040 C 42.239 16.880,42.207 17.050,42.209 17.417 M21.750 19.167 C 22.201 19.625,22.608 20.000,22.654 20.000 C 22.700 20.000,22.368 19.625,21.917 19.167 C 21.465 18.708,21.058 18.333,21.013 18.333 C 20.967 18.333,21.299 18.708,21.750 19.167 M39.872 20.833 C 39.872 21.154,39.906 21.285,39.948 21.125 C 39.990 20.965,39.990 20.702,39.948 20.542 C 39.906 20.381,39.872 20.512,39.872 20.833 M24.667 21.917 C 24.978 22.238,25.270 22.500,25.315 22.500 C 25.361 22.500,25.144 22.238,24.833 21.917 C 24.522 21.596,24.230 21.333,24.185 21.333 C 24.139 21.333,24.356 21.596,24.667 21.917 M39.705 23.667 C 39.705 23.988,39.740 24.119,39.782 23.958 C 39.823 23.798,39.823 23.535,39.782 23.375 C 39.740 23.215,39.705 23.346,39.705 23.667 M51.880 30.123 C 52.318 30.157,52.993 30.157,53.380 30.122 C 53.767 30.087,53.408 30.059,52.583 30.059 C 51.758 30.060,51.442 30.088,51.880 30.123 M47.083 33.167 C 47.535 33.625,47.942 34.000,47.987 34.000 C 48.033 34.000,47.701 33.625,47.250 33.167 C 46.799 32.708,46.392 32.333,46.346 32.333 C 46.300 32.333,46.632 32.708,47.083 33.167 M27.128 33.121 C 27.428 33.158,27.878 33.157,28.128 33.119 C 28.378 33.081,28.133 33.051,27.583 33.052 C 27.033 33.053,26.828 33.084,27.128 33.121 M46.167 35.052 C 46.167 35.081,46.410 35.325,46.708 35.594 L 47.250 36.083 46.760 35.542 C 46.304 35.037,46.167 34.923,46.167 35.052 M48.289 37.331 C 48.738 37.809,48.863 37.867,49.039 37.678 C 49.210 37.494,49.208 37.475,49.028 37.577 C 48.890 37.656,48.607 37.525,48.278 37.230 L 47.750 36.758 48.289 37.331 M39.240 40.708 L 38.750 41.250 39.292 40.760 C 39.797 40.304,39.910 40.167,39.781 40.167 C 39.752 40.167,39.509 40.410,39.240 40.708 M48.073 43.875 L 47.583 44.417 48.125 43.927 C 48.423 43.658,48.667 43.414,48.667 43.385 C 48.667 43.257,48.529 43.370,48.073 43.875 M34.155 53.794 L 33.583 54.416 34.166 53.916 C 34.486 53.642,34.780 53.398,34.819 53.375 C 34.857 53.352,34.853 53.297,34.808 53.252 C 34.764 53.208,34.470 53.452,34.155 53.794 M32.240 55.875 L 31.750 56.417 32.292 55.927 C 32.797 55.471,32.910 55.333,32.781 55.333 C 32.752 55.333,32.509 55.577,32.240 55.875 M23.609 55.971 C 23.285 56.330,23.258 56.500,23.528 56.500 C 23.635 56.500,23.672 56.450,23.611 56.389 C 23.549 56.327,23.624 56.140,23.775 55.972 C 23.927 55.804,24.014 55.667,23.968 55.667 C 23.922 55.667,23.761 55.804,23.609 55.971 " stroke="none" fill="#a1a1a1" fill-rule="evenodd"></path><path id="path3" d="M20.083 13.167 C 20.441 13.533,20.772 13.833,20.818 13.833 C 20.863 13.833,20.608 13.533,20.250 13.167 C 19.892 12.800,19.562 12.500,19.516 12.500 C 19.470 12.500,19.725 12.800,20.083 13.167 M42.205 19.000 C 42.205 19.321,42.240 19.452,42.282 19.292 C 42.323 19.131,42.323 18.869,42.282 18.708 C 42.240 18.548,42.205 18.679,42.205 19.000 M23.167 20.417 C 23.478 20.737,23.770 21.000,23.815 21.000 C 23.861 21.000,23.644 20.737,23.333 20.417 C 23.022 20.096,22.730 19.833,22.685 19.833 C 22.639 19.833,22.856 20.096,23.167 20.417 M49.960 30.285 C 50.168 30.324,50.468 30.323,50.627 30.281 C 50.786 30.239,50.617 30.207,50.250 30.209 C 49.883 30.211,49.753 30.245,49.960 30.285 M24.833 33.157 C 24.833 33.243,24.920 33.367,25.026 33.433 C 25.140 33.503,25.173 33.479,25.107 33.371 C 25.042 33.267,25.155 33.160,25.373 33.118 C 25.699 33.055,25.688 33.042,25.292 33.023 C 25.040 33.010,24.833 33.071,24.833 33.157 M29.794 33.285 C 30.001 33.324,30.301 33.323,30.460 33.281 C 30.620 33.239,30.450 33.207,30.083 33.209 C 29.717 33.211,29.586 33.245,29.794 33.285 M56.833 33.833 L 56.417 33.967 56.875 33.983 C 57.127 33.993,57.333 33.925,57.333 33.833 C 57.333 33.742,57.315 33.674,57.292 33.683 C 57.269 33.692,57.063 33.760,56.833 33.833 M30.685 57.343 C 30.465 57.526,30.321 57.710,30.365 57.754 C 30.408 57.797,30.619 57.645,30.834 57.416 C 31.302 56.918,31.234 56.885,30.685 57.343 " stroke="none" fill="#747474" fill-rule="evenodd"></path><path id="path4" d="M21.667 14.750 C 22.165 15.254,22.609 15.667,22.655 15.667 C 22.701 15.667,22.331 15.254,21.833 14.750 C 21.335 14.246,20.891 13.833,20.845 13.833 C 20.799 13.833,21.169 14.246,21.667 14.750 M25.875 33.115 C 26.035 33.157,26.298 33.157,26.458 33.115 C 26.619 33.073,26.488 33.039,26.167 33.039 C 25.846 33.039,25.715 33.073,25.875 33.115 " stroke="none" fill="#7c7c7c" fill-rule="evenodd"></path></g></svg>